<mxfile host="65bd71144e" modified="2022-07-11T02:40:07.485Z" agent="5.0 (Macintosh; Intel Mac OS X 10_15_7) AppleWebKit/537.36 (KHTML, like Gecko) Code/1.69.0 Chrome/100.0.4896.160 Electron/18.3.5 Safari/537.36" etag="Rfos1jbfqRCUB_N3BUe6" version="20.0.4" type="embed">
    <diagram id="xK-RDEqijTQlMc5HiV1r" name="ページ1">
        <mxGraphModel dx="946" dy="477" grid="1" gridSize="10" guides="1" tooltips="1" connect="1" arrows="1" fold="1" page="1" pageScale="1" pageWidth="1169" pageHeight="827" background="none" math="0" shadow="1">
            <root>
                <mxCell id="0"/>
                <mxCell id="1" parent="0"/>
                <mxCell id="uuQJlsD3tYOj761jZAZG-34" value="" style="rounded=0;whiteSpace=wrap;html=1;fontSize=9;fillColor=#60a917;fontColor=#ffffff;strokeColor=#2D7600;" parent="1" vertex="1">
                    <mxGeometry x="140" y="260" width="1020" height="90" as="geometry"/>
                </mxCell>
                <mxCell id="2" value="" style="rounded=0;whiteSpace=wrap;html=1;fillColor=#d80073;fontColor=#ffffff;strokeColor=#A50040;" vertex="1" parent="1">
                    <mxGeometry x="140" y="404" width="1020" height="176" as="geometry"/>
                </mxCell>
                <mxCell id="uuQJlsD3tYOj761jZAZG-26" value="" style="rounded=0;whiteSpace=wrap;html=1;fontSize=10;fillColor=#1ba1e2;fontColor=#ffffff;strokeColor=#006EAF;" parent="1" vertex="1">
                    <mxGeometry x="140" y="50" width="1020" height="180" as="geometry"/>
                </mxCell>
                <mxCell id="uuQJlsD3tYOj761jZAZG-36" style="rounded=0;orthogonalLoop=1;jettySize=auto;html=1;fontSize=9;exitX=0.636;exitY=1.003;exitDx=0;exitDy=0;exitPerimeter=0;" parent="1" source="uuQJlsD3tYOj761jZAZG-12" target="uuQJlsD3tYOj761jZAZG-33" edge="1">
                    <mxGeometry relative="1" as="geometry"/>
                </mxCell>
                <mxCell id="uuQJlsD3tYOj761jZAZG-12" value="" style="rounded=0;whiteSpace=wrap;html=1;fontSize=10;fillColor=none;" parent="1" vertex="1">
                    <mxGeometry x="392.5" y="60" width="110" height="160" as="geometry"/>
                </mxCell>
                <mxCell id="uuQJlsD3tYOj761jZAZG-39" style="edgeStyle=none;rounded=0;orthogonalLoop=1;jettySize=auto;html=1;entryX=0.471;entryY=0.081;entryDx=0;entryDy=0;entryPerimeter=0;fontSize=9;" parent="1" source="uuQJlsD3tYOj761jZAZG-11" target="uuQJlsD3tYOj761jZAZG-31" edge="1">
                    <mxGeometry relative="1" as="geometry"/>
                </mxCell>
                <mxCell id="uuQJlsD3tYOj761jZAZG-11" value="" style="rounded=0;whiteSpace=wrap;html=1;fontSize=10;fillColor=none;" parent="1" vertex="1">
                    <mxGeometry x="917.5" y="60" width="190" height="160" as="geometry"/>
                </mxCell>
                <mxCell id="uuQJlsD3tYOj761jZAZG-1" value="ログイン画面" style="shape=umlBoundary;whiteSpace=wrap;html=1;fillColor=#f5f5f5;fontColor=#333333;strokeColor=#666666;" parent="1" vertex="1">
                    <mxGeometry x="287.5" y="145" width="70" height="60" as="geometry"/>
                </mxCell>
                <mxCell id="uuQJlsD3tYOj761jZAZG-2" value="メイン&lt;br&gt;画面" style="shape=umlBoundary;whiteSpace=wrap;html=1;fillColor=#f5f5f5;fontColor=#333333;strokeColor=#666666;" parent="1" vertex="1">
                    <mxGeometry x="182.5" y="110" width="70" height="60" as="geometry"/>
                </mxCell>
                <mxCell id="uuQJlsD3tYOj761jZAZG-3" value="&lt;font style=&quot;font-size: 10px;&quot;&gt;レイアウト決定画面&lt;/font&gt;" style="shape=umlBoundary;whiteSpace=wrap;html=1;fillColor=#f5f5f5;fontColor=#333333;strokeColor=#666666;" parent="1" vertex="1">
                    <mxGeometry x="412.5" y="75" width="70" height="60" as="geometry"/>
                </mxCell>
                <mxCell id="uuQJlsD3tYOj761jZAZG-4" value="&lt;font style=&quot;font-size: 10px;&quot;&gt;レイアウト確認画面&lt;/font&gt;" style="shape=umlBoundary;whiteSpace=wrap;html=1;fillColor=#f5f5f5;fontColor=#333333;strokeColor=#666666;" parent="1" vertex="1">
                    <mxGeometry x="412.5" y="145" width="70" height="60" as="geometry"/>
                </mxCell>
                <mxCell id="uuQJlsD3tYOj761jZAZG-5" value="&lt;font style=&quot;font-size: 10px;&quot;&gt;本の登録&lt;br&gt;画面&lt;/font&gt;" style="shape=umlBoundary;whiteSpace=wrap;html=1;fillColor=#f5f5f5;fontColor=#333333;strokeColor=#666666;" parent="1" vertex="1">
                    <mxGeometry x="937.5" y="75" width="70" height="60" as="geometry"/>
                </mxCell>
                <mxCell id="uuQJlsD3tYOj761jZAZG-6" value="&lt;font style=&quot;font-size: 10px;&quot;&gt;本の削除&lt;br&gt;画面&lt;/font&gt;" style="shape=umlBoundary;whiteSpace=wrap;html=1;fillColor=#f5f5f5;fontColor=#333333;strokeColor=#666666;" parent="1" vertex="1">
                    <mxGeometry x="937.5" y="145" width="70" height="60" as="geometry"/>
                </mxCell>
                <mxCell id="uuQJlsD3tYOj761jZAZG-7" value="&lt;font style=&quot;font-size: 10px;&quot;&gt;本の検索&lt;br&gt;画面&lt;/font&gt;" style="shape=umlBoundary;whiteSpace=wrap;html=1;fillColor=#f5f5f5;fontColor=#333333;strokeColor=#666666;" parent="1" vertex="1">
                    <mxGeometry x="1017.5" y="145" width="70" height="60" as="geometry"/>
                </mxCell>
                <mxCell id="uuQJlsD3tYOj761jZAZG-8" value="&lt;font style=&quot;font-size: 10px;&quot;&gt;確認&lt;br&gt;画面&lt;/font&gt;" style="shape=umlBoundary;whiteSpace=wrap;html=1;fillColor=#f5f5f5;fontColor=#333333;strokeColor=#666666;" parent="1" vertex="1">
                    <mxGeometry x="1017.5" y="75" width="70" height="60" as="geometry"/>
                </mxCell>
                <mxCell id="uuQJlsD3tYOj761jZAZG-13" value="" style="rounded=0;whiteSpace=wrap;html=1;fontSize=10;fillColor=none;" parent="1" vertex="1">
                    <mxGeometry x="717.5" y="60" width="190" height="160" as="geometry"/>
                </mxCell>
                <mxCell id="uuQJlsD3tYOj761jZAZG-14" value="&lt;font style=&quot;font-size: 10px;&quot;&gt;本棚の登録&lt;br&gt;画面&lt;/font&gt;" style="shape=umlBoundary;whiteSpace=wrap;html=1;fillColor=#f5f5f5;fontColor=#333333;strokeColor=#666666;" parent="1" vertex="1">
                    <mxGeometry x="737.5" y="75" width="70" height="60" as="geometry"/>
                </mxCell>
                <mxCell id="uuQJlsD3tYOj761jZAZG-37" style="edgeStyle=none;rounded=0;orthogonalLoop=1;jettySize=auto;html=1;fontSize=9;" parent="1" source="uuQJlsD3tYOj761jZAZG-19" target="uuQJlsD3tYOj761jZAZG-33" edge="1">
                    <mxGeometry relative="1" as="geometry"/>
                </mxCell>
                <mxCell id="uuQJlsD3tYOj761jZAZG-19" value="" style="rounded=0;whiteSpace=wrap;html=1;fontSize=10;fillColor=none;" parent="1" vertex="1">
                    <mxGeometry x="517.5" y="60" width="190" height="160" as="geometry"/>
                </mxCell>
                <mxCell id="uuQJlsD3tYOj761jZAZG-15" value="&lt;font style=&quot;font-size: 10px;&quot;&gt;本棚の削除&lt;br&gt;画面&lt;/font&gt;" style="shape=umlBoundary;whiteSpace=wrap;html=1;fillColor=#f5f5f5;fontColor=#333333;strokeColor=#666666;" parent="1" vertex="1">
                    <mxGeometry x="737.5" y="145" width="70" height="60" as="geometry"/>
                </mxCell>
                <mxCell id="uuQJlsD3tYOj761jZAZG-16" value="&lt;font style=&quot;font-size: 10px;&quot;&gt;本棚の検索&lt;br&gt;画面&lt;/font&gt;" style="shape=umlBoundary;whiteSpace=wrap;html=1;fillColor=#f5f5f5;fontColor=#333333;strokeColor=#666666;" parent="1" vertex="1">
                    <mxGeometry x="817.5" y="145" width="70" height="60" as="geometry"/>
                </mxCell>
                <mxCell id="uuQJlsD3tYOj761jZAZG-17" value="&lt;font style=&quot;font-size: 10px;&quot;&gt;確認&lt;br&gt;画面&lt;/font&gt;" style="shape=umlBoundary;whiteSpace=wrap;html=1;fillColor=#f5f5f5;fontColor=#333333;strokeColor=#666666;" parent="1" vertex="1">
                    <mxGeometry x="817.5" y="75" width="70" height="60" as="geometry"/>
                </mxCell>
                <mxCell id="uuQJlsD3tYOj761jZAZG-18" value="&lt;span style=&quot;font-size: 10px;&quot;&gt;本棚選択&lt;br&gt;画面&lt;/span&gt;" style="shape=umlBoundary;whiteSpace=wrap;html=1;fillColor=#f5f5f5;fontColor=#333333;strokeColor=#666666;" parent="1" vertex="1">
                    <mxGeometry x="537.5" y="75" width="70" height="60" as="geometry"/>
                </mxCell>
                <mxCell id="uuQJlsD3tYOj761jZAZG-20" value="&lt;span style=&quot;font-size: 10px;&quot;&gt;レイアウト選択画面&lt;/span&gt;" style="shape=umlBoundary;whiteSpace=wrap;html=1;fillColor=#f5f5f5;fontColor=#333333;strokeColor=#666666;" parent="1" vertex="1">
                    <mxGeometry x="617.5" y="75" width="70" height="60" as="geometry"/>
                </mxCell>
                <mxCell id="uuQJlsD3tYOj761jZAZG-21" value="&lt;span style=&quot;font-size: 10px;&quot;&gt;レイアウト表示画面&lt;/span&gt;" style="shape=umlBoundary;whiteSpace=wrap;html=1;fillColor=#f5f5f5;fontColor=#333333;strokeColor=#666666;" parent="1" vertex="1">
                    <mxGeometry x="537.5" y="145" width="70" height="60" as="geometry"/>
                </mxCell>
                <mxCell id="uuQJlsD3tYOj761jZAZG-22" value="&lt;span style=&quot;font-size: 10px;&quot;&gt;レイアウト登録画面&lt;/span&gt;" style="shape=umlBoundary;whiteSpace=wrap;html=1;fillColor=#f5f5f5;fontColor=#333333;strokeColor=#666666;" parent="1" vertex="1">
                    <mxGeometry x="617.5" y="145" width="70" height="60" as="geometry"/>
                </mxCell>
                <mxCell id="uuQJlsD3tYOj761jZAZG-35" style="edgeStyle=orthogonalEdgeStyle;rounded=0;orthogonalLoop=1;jettySize=auto;html=1;fontSize=9;" parent="1" source="uuQJlsD3tYOj761jZAZG-24" target="uuQJlsD3tYOj761jZAZG-30" edge="1">
                    <mxGeometry relative="1" as="geometry"/>
                </mxCell>
                <mxCell id="uuQJlsD3tYOj761jZAZG-24" value="" style="rounded=0;whiteSpace=wrap;html=1;fontSize=10;fillColor=none;" parent="1" vertex="1">
                    <mxGeometry x="267.5" y="60" width="110" height="160" as="geometry"/>
                </mxCell>
                <mxCell id="uuQJlsD3tYOj761jZAZG-25" value="&lt;font style=&quot;font-size: 10px;&quot;&gt;アカウント登録画面&lt;/font&gt;" style="shape=umlBoundary;whiteSpace=wrap;html=1;fillColor=#f5f5f5;fontColor=#333333;strokeColor=#666666;" parent="1" vertex="1">
                    <mxGeometry x="287.5" y="75" width="70" height="60" as="geometry"/>
                </mxCell>
                <mxCell id="uuQJlsD3tYOj761jZAZG-28" value="ユーザーインターフェース層" style="text;html=1;strokeColor=none;fillColor=none;align=center;verticalAlign=middle;whiteSpace=wrap;rounded=0;fontSize=13;" parent="1" vertex="1">
                    <mxGeometry x="20" y="125" width="110" height="30" as="geometry"/>
                </mxCell>
                <mxCell id="25" style="edgeStyle=none;html=1;entryX=0.5;entryY=0;entryDx=0;entryDy=0;entryPerimeter=0;endArrow=none;endFill=0;" edge="1" parent="1" source="uuQJlsD3tYOj761jZAZG-30" target="uuQJlsD3tYOj761jZAZG-41">
                    <mxGeometry relative="1" as="geometry"/>
                </mxCell>
                <mxCell id="uuQJlsD3tYOj761jZAZG-30" value="&lt;font style=&quot;font-size: 9px;&quot;&gt;ユーザー&lt;br&gt;コントローラー&lt;/font&gt;" style="ellipse;shape=umlControl;whiteSpace=wrap;html=1;fontSize=13;fillColor=#f5f5f5;fontColor=#333333;strokeColor=#666666;" parent="1" vertex="1">
                    <mxGeometry x="287.5" y="265" width="70" height="80" as="geometry"/>
                </mxCell>
                <mxCell id="46" style="edgeStyle=none;html=1;entryX=0.5;entryY=0;entryDx=0;entryDy=0;entryPerimeter=0;endArrow=none;endFill=0;" edge="1" parent="1" source="uuQJlsD3tYOj761jZAZG-45" target="8">
                    <mxGeometry relative="1" as="geometry"/>
                </mxCell>
                <mxCell id="48" style="edgeStyle=none;html=1;entryX=0.5;entryY=0;entryDx=0;entryDy=0;entryPerimeter=0;endArrow=none;endFill=0;" edge="1" parent="1" source="uuQJlsD3tYOj761jZAZG-31" target="uuQJlsD3tYOj761jZAZG-45">
                    <mxGeometry relative="1" as="geometry"/>
                </mxCell>
                <mxCell id="47" style="edgeStyle=none;html=1;entryX=0.5;entryY=0;entryDx=0;entryDy=0;endArrow=none;endFill=0;" edge="1" parent="1" source="uuQJlsD3tYOj761jZAZG-45" target="18">
                    <mxGeometry relative="1" as="geometry"/>
                </mxCell>
                <mxCell id="uuQJlsD3tYOj761jZAZG-31" value="&lt;font size=&quot;1&quot;&gt;本コントローラー&lt;/font&gt;" style="ellipse;shape=umlControl;whiteSpace=wrap;html=1;fontSize=13;fillColor=#f5f5f5;fontColor=#333333;strokeColor=#666666;" parent="1" vertex="1">
                    <mxGeometry x="977.5" y="265" width="70" height="80" as="geometry"/>
                </mxCell>
                <mxCell id="uuQJlsD3tYOj761jZAZG-45" value="&lt;font style=&quot;font-size: 11px;&quot;&gt;本&lt;br&gt;サービス&lt;br&gt;&lt;/font&gt;" style="strokeWidth=1;html=1;shape=mxgraph.flowchart.loop_limit;whiteSpace=wrap;fontSize=9;fillColor=#f5f5f5;fontColor=#333333;strokeColor=#666666;" parent="1" vertex="1">
                    <mxGeometry x="962.5" y="414" width="100" height="40" as="geometry"/>
                </mxCell>
                <mxCell id="3" value="ドメイン層" style="text;html=1;align=center;verticalAlign=middle;resizable=0;points=[];autosize=1;strokeColor=none;fillColor=none;" vertex="1" parent="1">
                    <mxGeometry x="35" y="472" width="80" height="20" as="geometry"/>
                </mxCell>
                <mxCell id="4" value="ユーザ&lt;br&gt;台帳" style="ellipse;shape=umlEntity;whiteSpace=wrap;html=1;fillColor=#f5f5f5;fontColor=#333333;strokeColor=#666666;" vertex="1" parent="1">
                    <mxGeometry x="252.5" y="510" width="60" height="60" as="geometry"/>
                </mxCell>
                <mxCell id="5" value="ユーザ" style="ellipse;shape=umlEntity;whiteSpace=wrap;html=1;fillColor=#f5f5f5;fontColor=#333333;strokeColor=#666666;" vertex="1" parent="1">
                    <mxGeometry x="322" y="510" width="60" height="60" as="geometry"/>
                </mxCell>
                <mxCell id="6" value="レイアウト台帳" style="ellipse;shape=umlEntity;whiteSpace=wrap;html=1;fillColor=#f5f5f5;fontColor=#333333;strokeColor=#666666;" vertex="1" parent="1">
                    <mxGeometry x="450" y="510" width="62.5" height="60" as="geometry"/>
                </mxCell>
                <mxCell id="99" style="edgeStyle=none;html=1;entryX=0.616;entryY=1.021;entryDx=0;entryDy=0;entryPerimeter=0;endArrow=none;endFill=0;exitX=0;exitY=0;exitDx=0;exitDy=0;" edge="1" parent="1" source="7" target="uuQJlsD3tYOj761jZAZG-43">
                    <mxGeometry relative="1" as="geometry"/>
                </mxCell>
                <mxCell id="7" value="本棚台帳" style="ellipse;shape=umlEntity;whiteSpace=wrap;html=1;fillColor=#f5f5f5;fontColor=#333333;strokeColor=#666666;" vertex="1" parent="1">
                    <mxGeometry x="687.5" y="510" width="60" height="60" as="geometry"/>
                </mxCell>
                <mxCell id="101" style="edgeStyle=none;html=1;entryX=0.648;entryY=1.047;entryDx=0;entryDy=0;entryPerimeter=0;endArrow=none;endFill=0;exitX=0.5;exitY=0;exitDx=0;exitDy=0;" edge="1" parent="1" source="8" target="uuQJlsD3tYOj761jZAZG-43">
                    <mxGeometry relative="1" as="geometry"/>
                </mxCell>
                <mxCell id="8" value="本台帳" style="ellipse;shape=umlEntity;whiteSpace=wrap;html=1;fillColor=#f5f5f5;fontColor=#333333;strokeColor=#666666;" vertex="1" parent="1">
                    <mxGeometry x="945" y="510" width="62.5" height="60" as="geometry"/>
                </mxCell>
                <mxCell id="17" value="レイアウト" style="ellipse;shape=umlEntity;whiteSpace=wrap;html=1;fillColor=#f5f5f5;fontColor=#333333;strokeColor=#666666;" vertex="1" parent="1">
                    <mxGeometry x="530" y="510" width="62.5" height="60" as="geometry"/>
                </mxCell>
                <mxCell id="102" style="edgeStyle=none;html=1;entryX=0.5;entryY=1;entryDx=0;entryDy=0;entryPerimeter=0;endArrow=none;endFill=0;exitX=0.5;exitY=0;exitDx=0;exitDy=0;" edge="1" parent="1" source="18" target="uuQJlsD3tYOj761jZAZG-43">
                    <mxGeometry relative="1" as="geometry"/>
                </mxCell>
                <mxCell id="18" value="本" style="ellipse;shape=umlEntity;whiteSpace=wrap;html=1;fillColor=#f5f5f5;fontColor=#333333;strokeColor=#666666;" vertex="1" parent="1">
                    <mxGeometry x="1017.5" y="510" width="62.5" height="60" as="geometry"/>
                </mxCell>
                <mxCell id="20" value="" style="rounded=0;whiteSpace=wrap;html=1;fillColor=#6a00ff;fontColor=#ffffff;strokeColor=#3700CC;" vertex="1" parent="1">
                    <mxGeometry x="140" y="620" width="1020" height="120" as="geometry"/>
                </mxCell>
                <mxCell id="21" value="インフラ&lt;br&gt;ストラクチャ層" style="text;html=1;align=center;verticalAlign=middle;resizable=0;points=[];autosize=1;strokeColor=none;fillColor=none;" vertex="1" parent="1">
                    <mxGeometry x="20" y="640" width="110" height="40" as="geometry"/>
                </mxCell>
                <mxCell id="100" style="edgeStyle=none;html=1;entryX=0.69;entryY=1.074;entryDx=0;entryDy=0;entryPerimeter=0;endArrow=none;endFill=0;exitX=0.249;exitY=0.028;exitDx=0;exitDy=0;exitPerimeter=0;" edge="1" parent="1" source="23" target="uuQJlsD3tYOj761jZAZG-43">
                    <mxGeometry relative="1" as="geometry"/>
                </mxCell>
                <mxCell id="23" value="本棚" style="ellipse;shape=umlEntity;whiteSpace=wrap;html=1;fillColor=#f5f5f5;fontColor=#333333;strokeColor=#666666;" vertex="1" parent="1">
                    <mxGeometry x="757.5" y="510" width="60" height="60" as="geometry"/>
                </mxCell>
                <mxCell id="uuQJlsD3tYOj761jZAZG-33" value="&lt;font size=&quot;1&quot;&gt;レイアウトコントローラー&lt;/font&gt;" style="ellipse;shape=umlControl;whiteSpace=wrap;html=1;fontSize=13;fillColor=#f5f5f5;fontColor=#333333;strokeColor=#666666;" parent="1" vertex="1">
                    <mxGeometry x="490" y="265" width="70" height="80" as="geometry"/>
                </mxCell>
                <mxCell id="uuQJlsD3tYOj761jZAZG-32" value="&lt;font size=&quot;1&quot;&gt;本棚コント&lt;br&gt;ローラー&lt;/font&gt;" style="ellipse;shape=umlControl;whiteSpace=wrap;html=1;fontSize=13;fillColor=#f5f5f5;fontColor=#333333;strokeColor=#666666;" parent="1" vertex="1">
                    <mxGeometry x="717.5" y="265" width="70" height="80" as="geometry"/>
                </mxCell>
                <mxCell id="27" style="rounded=0;orthogonalLoop=1;jettySize=auto;html=1;entryX=0.5;entryY=0;entryDx=0;entryDy=0;endArrow=none;endFill=0;" edge="1" parent="1" source="uuQJlsD3tYOj761jZAZG-32" target="uuQJlsD3tYOj761jZAZG-44">
                    <mxGeometry relative="1" as="geometry"/>
                </mxCell>
                <mxCell id="26" style="edgeStyle=none;html=1;endArrow=none;endFill=0;" edge="1" parent="1" source="uuQJlsD3tYOj761jZAZG-33" target="uuQJlsD3tYOj761jZAZG-43">
                    <mxGeometry relative="1" as="geometry"/>
                </mxCell>
                <mxCell id="uuQJlsD3tYOj761jZAZG-40" value="コントローラー層" style="text;html=1;strokeColor=none;fillColor=none;align=center;verticalAlign=middle;whiteSpace=wrap;rounded=0;fontSize=13;" parent="1" vertex="1">
                    <mxGeometry x="20" y="290" width="110" height="30" as="geometry"/>
                </mxCell>
                <mxCell id="53" style="edgeStyle=none;html=1;endArrow=none;endFill=0;" edge="1" parent="1" source="uuQJlsD3tYOj761jZAZG-41" target="4">
                    <mxGeometry relative="1" as="geometry"/>
                </mxCell>
                <mxCell id="55" style="edgeStyle=none;html=1;endArrow=none;endFill=0;" edge="1" parent="1" source="uuQJlsD3tYOj761jZAZG-41" target="5">
                    <mxGeometry relative="1" as="geometry"/>
                </mxCell>
                <mxCell id="uuQJlsD3tYOj761jZAZG-41" value="&lt;font style=&quot;font-size: 11px;&quot;&gt;ユーザーサービス&lt;br&gt;&lt;/font&gt;" style="strokeWidth=1;html=1;shape=mxgraph.flowchart.loop_limit;whiteSpace=wrap;fontSize=9;fillColor=#f5f5f5;fontColor=#333333;strokeColor=#666666;" parent="1" vertex="1">
                    <mxGeometry x="272.5" y="414" width="100" height="40" as="geometry"/>
                </mxCell>
                <mxCell id="49" style="edgeStyle=none;html=1;endArrow=none;endFill=0;" edge="1" parent="1" source="uuQJlsD3tYOj761jZAZG-43" target="6">
                    <mxGeometry relative="1" as="geometry"/>
                </mxCell>
                <mxCell id="50" style="edgeStyle=none;html=1;endArrow=none;endFill=0;" edge="1" parent="1" source="uuQJlsD3tYOj761jZAZG-43" target="17">
                    <mxGeometry relative="1" as="geometry"/>
                </mxCell>
                <mxCell id="uuQJlsD3tYOj761jZAZG-43" value="&lt;font style=&quot;font-size: 11px;&quot;&gt;レイアウト&lt;br&gt;サービス&lt;br&gt;&lt;/font&gt;" style="strokeWidth=1;html=1;shape=mxgraph.flowchart.loop_limit;whiteSpace=wrap;fontSize=9;fillColor=#f5f5f5;fontColor=#333333;strokeColor=#666666;" parent="1" vertex="1">
                    <mxGeometry x="475" y="414" width="100" height="40" as="geometry"/>
                </mxCell>
                <mxCell id="51" style="edgeStyle=none;html=1;endArrow=none;endFill=0;" edge="1" parent="1" source="uuQJlsD3tYOj761jZAZG-44" target="7">
                    <mxGeometry relative="1" as="geometry"/>
                </mxCell>
                <mxCell id="52" style="edgeStyle=none;html=1;endArrow=none;endFill=0;" edge="1" parent="1" source="uuQJlsD3tYOj761jZAZG-44" target="23">
                    <mxGeometry relative="1" as="geometry"/>
                </mxCell>
                <mxCell id="uuQJlsD3tYOj761jZAZG-44" value="&lt;font style=&quot;font-size: 11px;&quot;&gt;本棚&lt;br&gt;サービス&lt;br&gt;&lt;/font&gt;" style="strokeWidth=1;html=1;shape=mxgraph.flowchart.loop_limit;whiteSpace=wrap;fontSize=9;fillColor=#f5f5f5;fontColor=#333333;strokeColor=#666666;" parent="1" vertex="1">
                    <mxGeometry x="702.5" y="414" width="100" height="40" as="geometry"/>
                </mxCell>
                <mxCell id="65" style="edgeStyle=none;html=1;endArrow=block;endFill=0;" edge="1" parent="1" source="57" target="6">
                    <mxGeometry relative="1" as="geometry"/>
                </mxCell>
                <mxCell id="57" value="レイアウト&lt;br&gt;レポジトリ" style="shape=loopLimit;whiteSpace=wrap;html=1;rounded=1;fillColor=#f5f5f5;fontColor=#333333;strokeColor=#666666;" vertex="1" parent="1">
                    <mxGeometry x="430" y="634" width="100" height="40" as="geometry"/>
                </mxCell>
                <mxCell id="66" style="edgeStyle=none;html=1;endArrow=block;endFill=0;" edge="1" parent="1" source="58" target="4">
                    <mxGeometry relative="1" as="geometry"/>
                </mxCell>
                <mxCell id="58" value="ユーザレポジトリ" style="shape=loopLimit;whiteSpace=wrap;html=1;rounded=1;fillColor=#f5f5f5;fontColor=#333333;strokeColor=#666666;" vertex="1" parent="1">
                    <mxGeometry x="230" y="635" width="100" height="40" as="geometry"/>
                </mxCell>
                <mxCell id="67" style="edgeStyle=none;html=1;entryX=0.5;entryY=1;entryDx=0;entryDy=0;endArrow=block;endFill=0;" edge="1" parent="1" source="59" target="8">
                    <mxGeometry relative="1" as="geometry"/>
                </mxCell>
                <mxCell id="59" value="本レポジトリ" style="shape=loopLimit;whiteSpace=wrap;html=1;rounded=1;fillColor=#f5f5f5;fontColor=#333333;strokeColor=#666666;" vertex="1" parent="1">
                    <mxGeometry x="926.25" y="634" width="100" height="40" as="geometry"/>
                </mxCell>
                <mxCell id="62" style="edgeStyle=none;html=1;entryX=0.5;entryY=1;entryDx=0;entryDy=0;endArrow=block;endFill=0;" edge="1" parent="1" source="60" target="7">
                    <mxGeometry relative="1" as="geometry"/>
                </mxCell>
                <mxCell id="60" value="本棚レポジトリ" style="shape=loopLimit;whiteSpace=wrap;html=1;rounded=1;fillColor=#f5f5f5;fontColor=#333333;strokeColor=#666666;" vertex="1" parent="1">
                    <mxGeometry x="667.5" y="633" width="100" height="40" as="geometry"/>
                </mxCell>
                <mxCell id="64" value="O/Rマッパー" style="rounded=0;whiteSpace=wrap;html=1;fillColor=#f5f5f5;fontColor=#333333;strokeColor=#666666;" vertex="1" parent="1">
                    <mxGeometry x="420" y="689" width="120" height="40" as="geometry"/>
                </mxCell>
                <mxCell id="70" style="edgeStyle=none;html=1;entryX=0.5;entryY=1;entryDx=0;entryDy=0;endArrow=none;endFill=0;" edge="1" parent="1" source="68" target="64">
                    <mxGeometry relative="1" as="geometry"/>
                </mxCell>
                <mxCell id="68" value="" style="shape=cylinder3;whiteSpace=wrap;html=1;boundedLbl=1;backgroundOutline=1;size=15;fillColor=none;" vertex="1" parent="1">
                    <mxGeometry x="373.75" y="790" width="215" height="140" as="geometry"/>
                </mxCell>
                <mxCell id="69" value="RDB" style="text;html=1;align=center;verticalAlign=middle;resizable=0;points=[];autosize=1;strokeColor=none;fillColor=none;" vertex="1" parent="1">
                    <mxGeometry x="547.5" y="770" width="50" height="30" as="geometry"/>
                </mxCell>
                <mxCell id="72" value="Table" style="shape=table;startSize=30;container=1;collapsible=0;childLayout=tableLayout;fontStyle=1;align=center;fillColor=none;" vertex="1" parent="1">
                    <mxGeometry x="382" y="831" width="96" height="80" as="geometry"/>
                </mxCell>
                <mxCell id="73" value="" style="shape=tableRow;horizontal=0;startSize=0;swimlaneHead=0;swimlaneBody=0;top=0;left=0;bottom=0;right=0;collapsible=0;dropTarget=0;fillColor=none;points=[[0,0.5],[1,0.5]];portConstraint=eastwest;" vertex="1" parent="72">
                    <mxGeometry y="30" width="96" height="17" as="geometry"/>
                </mxCell>
                <mxCell id="74" value="" style="shape=partialRectangle;html=1;whiteSpace=wrap;connectable=0;fillColor=none;top=0;left=0;bottom=0;right=0;overflow=hidden;" vertex="1" parent="73">
                    <mxGeometry width="32" height="17" as="geometry">
                        <mxRectangle width="32" height="17" as="alternateBounds"/>
                    </mxGeometry>
                </mxCell>
                <mxCell id="75" value="" style="shape=partialRectangle;html=1;whiteSpace=wrap;connectable=0;fillColor=none;top=0;left=0;bottom=0;right=0;overflow=hidden;" vertex="1" parent="73">
                    <mxGeometry x="32" width="32" height="17" as="geometry">
                        <mxRectangle width="32" height="17" as="alternateBounds"/>
                    </mxGeometry>
                </mxCell>
                <mxCell id="76" value="" style="shape=partialRectangle;html=1;whiteSpace=wrap;connectable=0;fillColor=none;top=0;left=0;bottom=0;right=0;overflow=hidden;" vertex="1" parent="73">
                    <mxGeometry x="64" width="32" height="17" as="geometry">
                        <mxRectangle width="32" height="17" as="alternateBounds"/>
                    </mxGeometry>
                </mxCell>
                <mxCell id="77" value="" style="shape=tableRow;horizontal=0;startSize=0;swimlaneHead=0;swimlaneBody=0;top=0;left=0;bottom=0;right=0;collapsible=0;dropTarget=0;fillColor=none;points=[[0,0.5],[1,0.5]];portConstraint=eastwest;" vertex="1" parent="72">
                    <mxGeometry y="47" width="96" height="16" as="geometry"/>
                </mxCell>
                <mxCell id="78" value="" style="shape=partialRectangle;html=1;whiteSpace=wrap;connectable=0;fillColor=none;top=0;left=0;bottom=0;right=0;overflow=hidden;" vertex="1" parent="77">
                    <mxGeometry width="32" height="16" as="geometry">
                        <mxRectangle width="32" height="16" as="alternateBounds"/>
                    </mxGeometry>
                </mxCell>
                <mxCell id="79" value="" style="shape=partialRectangle;html=1;whiteSpace=wrap;connectable=0;fillColor=none;top=0;left=0;bottom=0;right=0;overflow=hidden;" vertex="1" parent="77">
                    <mxGeometry x="32" width="32" height="16" as="geometry">
                        <mxRectangle width="32" height="16" as="alternateBounds"/>
                    </mxGeometry>
                </mxCell>
                <mxCell id="80" value="" style="shape=partialRectangle;html=1;whiteSpace=wrap;connectable=0;fillColor=none;top=0;left=0;bottom=0;right=0;overflow=hidden;" vertex="1" parent="77">
                    <mxGeometry x="64" width="32" height="16" as="geometry">
                        <mxRectangle width="32" height="16" as="alternateBounds"/>
                    </mxGeometry>
                </mxCell>
                <mxCell id="81" value="" style="shape=tableRow;horizontal=0;startSize=0;swimlaneHead=0;swimlaneBody=0;top=0;left=0;bottom=0;right=0;collapsible=0;dropTarget=0;fillColor=none;points=[[0,0.5],[1,0.5]];portConstraint=eastwest;" vertex="1" parent="72">
                    <mxGeometry y="63" width="96" height="17" as="geometry"/>
                </mxCell>
                <mxCell id="82" value="" style="shape=partialRectangle;html=1;whiteSpace=wrap;connectable=0;fillColor=none;top=0;left=0;bottom=0;right=0;overflow=hidden;" vertex="1" parent="81">
                    <mxGeometry width="32" height="17" as="geometry">
                        <mxRectangle width="32" height="17" as="alternateBounds"/>
                    </mxGeometry>
                </mxCell>
                <mxCell id="83" value="" style="shape=partialRectangle;html=1;whiteSpace=wrap;connectable=0;fillColor=none;top=0;left=0;bottom=0;right=0;overflow=hidden;" vertex="1" parent="81">
                    <mxGeometry x="32" width="32" height="17" as="geometry">
                        <mxRectangle width="32" height="17" as="alternateBounds"/>
                    </mxGeometry>
                </mxCell>
                <mxCell id="84" value="" style="shape=partialRectangle;html=1;whiteSpace=wrap;connectable=0;fillColor=none;top=0;left=0;bottom=0;right=0;overflow=hidden;" vertex="1" parent="81">
                    <mxGeometry x="64" width="32" height="17" as="geometry">
                        <mxRectangle width="32" height="17" as="alternateBounds"/>
                    </mxGeometry>
                </mxCell>
                <mxCell id="85" value="Table" style="shape=table;startSize=30;container=1;collapsible=0;childLayout=tableLayout;fontStyle=1;align=center;fillColor=none;" vertex="1" parent="1">
                    <mxGeometry x="484" y="831" width="96" height="80" as="geometry"/>
                </mxCell>
                <mxCell id="86" value="" style="shape=tableRow;horizontal=0;startSize=0;swimlaneHead=0;swimlaneBody=0;top=0;left=0;bottom=0;right=0;collapsible=0;dropTarget=0;fillColor=none;points=[[0,0.5],[1,0.5]];portConstraint=eastwest;" vertex="1" parent="85">
                    <mxGeometry y="30" width="96" height="17" as="geometry"/>
                </mxCell>
                <mxCell id="87" value="" style="shape=partialRectangle;html=1;whiteSpace=wrap;connectable=0;fillColor=none;top=0;left=0;bottom=0;right=0;overflow=hidden;" vertex="1" parent="86">
                    <mxGeometry width="32" height="17" as="geometry">
                        <mxRectangle width="32" height="17" as="alternateBounds"/>
                    </mxGeometry>
                </mxCell>
                <mxCell id="88" value="" style="shape=partialRectangle;html=1;whiteSpace=wrap;connectable=0;fillColor=none;top=0;left=0;bottom=0;right=0;overflow=hidden;" vertex="1" parent="86">
                    <mxGeometry x="32" width="32" height="17" as="geometry">
                        <mxRectangle width="32" height="17" as="alternateBounds"/>
                    </mxGeometry>
                </mxCell>
                <mxCell id="89" value="" style="shape=partialRectangle;html=1;whiteSpace=wrap;connectable=0;fillColor=none;top=0;left=0;bottom=0;right=0;overflow=hidden;" vertex="1" parent="86">
                    <mxGeometry x="64" width="32" height="17" as="geometry">
                        <mxRectangle width="32" height="17" as="alternateBounds"/>
                    </mxGeometry>
                </mxCell>
                <mxCell id="90" value="" style="shape=tableRow;horizontal=0;startSize=0;swimlaneHead=0;swimlaneBody=0;top=0;left=0;bottom=0;right=0;collapsible=0;dropTarget=0;fillColor=none;points=[[0,0.5],[1,0.5]];portConstraint=eastwest;" vertex="1" parent="85">
                    <mxGeometry y="47" width="96" height="16" as="geometry"/>
                </mxCell>
                <mxCell id="91" value="" style="shape=partialRectangle;html=1;whiteSpace=wrap;connectable=0;fillColor=none;top=0;left=0;bottom=0;right=0;overflow=hidden;" vertex="1" parent="90">
                    <mxGeometry width="32" height="16" as="geometry">
                        <mxRectangle width="32" height="16" as="alternateBounds"/>
                    </mxGeometry>
                </mxCell>
                <mxCell id="92" value="" style="shape=partialRectangle;html=1;whiteSpace=wrap;connectable=0;fillColor=none;top=0;left=0;bottom=0;right=0;overflow=hidden;" vertex="1" parent="90">
                    <mxGeometry x="32" width="32" height="16" as="geometry">
                        <mxRectangle width="32" height="16" as="alternateBounds"/>
                    </mxGeometry>
                </mxCell>
                <mxCell id="93" value="" style="shape=partialRectangle;html=1;whiteSpace=wrap;connectable=0;fillColor=none;top=0;left=0;bottom=0;right=0;overflow=hidden;" vertex="1" parent="90">
                    <mxGeometry x="64" width="32" height="16" as="geometry">
                        <mxRectangle width="32" height="16" as="alternateBounds"/>
                    </mxGeometry>
                </mxCell>
                <mxCell id="94" value="" style="shape=tableRow;horizontal=0;startSize=0;swimlaneHead=0;swimlaneBody=0;top=0;left=0;bottom=0;right=0;collapsible=0;dropTarget=0;fillColor=none;points=[[0,0.5],[1,0.5]];portConstraint=eastwest;" vertex="1" parent="85">
                    <mxGeometry y="63" width="96" height="17" as="geometry"/>
                </mxCell>
                <mxCell id="95" value="" style="shape=partialRectangle;html=1;whiteSpace=wrap;connectable=0;fillColor=none;top=0;left=0;bottom=0;right=0;overflow=hidden;" vertex="1" parent="94">
                    <mxGeometry width="32" height="17" as="geometry">
                        <mxRectangle width="32" height="17" as="alternateBounds"/>
                    </mxGeometry>
                </mxCell>
                <mxCell id="96" value="" style="shape=partialRectangle;html=1;whiteSpace=wrap;connectable=0;fillColor=none;top=0;left=0;bottom=0;right=0;overflow=hidden;" vertex="1" parent="94">
                    <mxGeometry x="32" width="32" height="17" as="geometry">
                        <mxRectangle width="32" height="17" as="alternateBounds"/>
                    </mxGeometry>
                </mxCell>
                <mxCell id="97" value="" style="shape=partialRectangle;html=1;whiteSpace=wrap;connectable=0;fillColor=none;top=0;left=0;bottom=0;right=0;overflow=hidden;" vertex="1" parent="94">
                    <mxGeometry x="64" width="32" height="17" as="geometry">
                        <mxRectangle width="32" height="17" as="alternateBounds"/>
                    </mxGeometry>
                </mxCell>
                <mxCell id="98" value="データの永続化" style="text;html=1;align=center;verticalAlign=middle;resizable=0;points=[];autosize=1;strokeColor=none;fillColor=none;" vertex="1" parent="1">
                    <mxGeometry x="252.5" y="845" width="110" height="30" as="geometry"/>
                </mxCell>
                <mxCell id="uuQJlsD3tYOj761jZAZG-38" style="edgeStyle=none;rounded=0;orthogonalLoop=1;jettySize=auto;html=1;fontSize=9;entryX=0.64;entryY=0.169;entryDx=0;entryDy=0;entryPerimeter=0;" parent="1" source="uuQJlsD3tYOj761jZAZG-13" target="uuQJlsD3tYOj761jZAZG-32" edge="1">
                    <mxGeometry relative="1" as="geometry"/>
                </mxCell>
            </root>
        </mxGraphModel>
    </diagram>
</mxfile>